# xmcd
#
# Track frame offsets:
#	150
#	38323
#	83481
#	114190
#	148847
#	187410
#	219051
#	257932
#	307134
#
# Disc length: 4594 seconds
#
# Revision: 0
# Processed by: cddbd v1.5.2PL0 Copyright (c) Steve Scherf et al.
# Submitted via: audiograbber 1.83.01
#
DISCID=7711f009
DTITLE=Estic Pop (IB3 Radio) - Estic Pop
DYEAR=2007
DGENRE=Radio
TTITLE0=Estic Pop  - Janis Joplin
TTITLE1=Estic Pop - Diana Ross
TTITLE2=Estic Pop - Donna Summer
TTITLE3=Estic Pop - George Michael 1
TTITLE4=Estic Pop - George Michael 2
TTITLE5=Estic Pop - The Jackson 5
TTITLE6=Estic Pop - The Human League
TTITLE7=Estic Pop - Jon Secada
TTITLE8=Estic Pop - La Unión
EXTD=
EXTT0=
EXTT1=
EXTT2=
EXTT3=
EXTT4=
EXTT5=
EXTT6=
EXTT7=
EXTT8=
PLAYORDER=
